<?xml version="1.0" encoding="UTF-8"?>
<!DOCTYPE svg PUBLIC "-//W3C//DTD SVG 1.1//EN" "http://www.w3.org/Graphics/SVG/1.1/DTD/svg11.dtd">
<!-- Creator: CorelDRAW -->
<svg xmlns="http://www.w3.org/2000/svg" xml:space="preserve" width="6.79675in" height="2.577in" version="1.1" style="shape-rendering:geometricPrecision; text-rendering:geometricPrecision; image-rendering:optimizeQuality; fill-rule:evenodd; clip-rule:evenodd"
viewBox="0 0 6582.23 2495.66"
 xmlns:xlink="http://www.w3.org/1999/xlink"
 xmlns:xodm="http://www.corel.com/coreldraw/odm/2003">
 <defs>
  <style type="text/css">
   <![CDATA[
    .fil0 {fill:#06003C}
   ]]>
  </style>
 </defs>
 <g id="Layer_x0020_1">
  <metadata id="CorelCorpID_0Corel-Layer"/>
  <path class="fil0" d="M1825.73 2495.66l314.93 0 0 -2412.41 -896.03 0 0 1588.63c413.87,23.23 616.23,217.68 581.1,823.77zm-1825.73 -1853.11l0 1853.11 1711.08 0c41.12,-709.52 -243.14,-758.18 -811.28,-758.18l0 -1654.22c-529.17,-83.26 -889,32.7 -899.79,559.3zm4859.08 195.53l592.76 0c156.23,0 234.35,57.44 234.35,172.32 0,114.88 -78.15,172.31 -234.35,172.31l-592.76 0 0 -344.63zm0 1106.17l561.75 0c379.09,0 668.58,-82.71 868.46,-248.13 195.29,-158.52 292.94,-385.98 292.94,-682.36 0,-296.38 -97.65,-523.84 -292.94,-682.36 -199.88,-165.42 -489.37,-248.13 -868.46,-248.13l-1457.78 0 -1068.35 0 -754.02 1206.2 754.02 1206.2 1068.35 0 896.03 0 0 -551.41zm-896.03 -1860.99l0 754.82 0 338.75 0 1318.83 -937.99 -1206.2 937.99 -1206.2z"/>
 </g>
</svg>
