<?xml version="1.0" encoding="UTF-8"?>
<!DOCTYPE svg PUBLIC "-//W3C//DTD SVG 1.1//EN" "http://www.w3.org/Graphics/SVG/1.1/DTD/svg11.dtd">
<!-- Creator: CorelDRAW -->
<svg xmlns="http://www.w3.org/2000/svg" xml:space="preserve" width="2.18014in" height="0.511646in" version="1.1" style="shape-rendering:geometricPrecision; text-rendering:geometricPrecision; image-rendering:optimizeQuality; fill-rule:evenodd; clip-rule:evenodd"
viewBox="0 0 1579.13 370.6"
 xmlns:xlink="http://www.w3.org/1999/xlink"
 xmlns:xodm="http://www.corel.com/coreldraw/odm/2003">
 <defs>
  <style type="text/css">
   <![CDATA[
    .fil2 {fill:#000066}
    .fil0 {fill:#000066;fill-rule:nonzero}
    .fil3 {fill:#06003C;fill-rule:nonzero}
    .fil1 {fill:red;fill-rule:nonzero}
   ]]>
  </style>
 </defs>
 <g id="Layer_x0020_1">
  <metadata id="CorelCorpID_0Corel-Layer"/>
  <path class="fil0" d="M434.68 294.81l0 -67.52 17.57 -15.16 34.45 53.74c11.02,17.57 32.38,28.94 53.06,28.94l16.88 0 -69.59 -111.97 -3.44 2.41 73.03 -62.7 -53.05 0 -68.9 59.26 0 -66.09 -10.33 0c-20.67,0 -34.45,13.78 -34.45,34.45l0 144.64 44.79 0zm285.6 0c0,-20.67 -13.78,-34.45 -34.45,-34.45l-36.17 0c-25.49,0 -40.65,-12.4 -45.48,-34.45l113.69 0c0,-65.11 -19.29,-108.52 -80.27,-108.52 -55.12,0 -81.65,36.17 -81.65,90.95 0,54.78 29.63,86.47 76.82,86.47l87.51 0zm-116.79 -103.35c3.44,-23.08 14.12,-37.9 35.14,-37.9 19.29,0 31.69,11.02 36.86,37.9l-72 0zm298.34 103.35c0,-20.67 -13.78,-34.45 -34.45,-34.45l-36.17 0c-25.49,0 -40.65,-12.4 -45.48,-34.45l113.69 0c0,-65.11 -19.29,-108.52 -80.27,-108.52 -55.12,0 -81.65,36.17 -81.65,90.95 0,54.78 29.63,86.47 76.82,86.47l87.51 0zm-116.79 -103.35c3.44,-23.08 14.12,-37.9 35.14,-37.9 19.29,0 31.69,11.02 36.86,37.9l-72 0zm151.24 179.14c20.67,0 34.45,-13.78 34.45,-34.45l0 -63.39c12.06,19.64 32.04,27.22 57.88,27.22 42.03,0 77.86,-36.86 77.86,-91.64 0,-54.78 -35.83,-90.95 -78.2,-90.95 -26.53,0 -45.82,7.23 -57.53,25.49l0 -20.33 -44.79 0 0 248.04 10.34 0zm123.68 -161.92c0,32.73 -18.26,55.12 -44.79,55.12 -26.53,0 -44.44,-22.39 -44.44,-55.12 0,-32.73 17.91,-55.12 44.44,-55.12 26.53,0 44.79,22.39 44.79,55.12zm118.85 2.93c0,-20.67 -13.78,-34.45 -34.45,-34.45l-10.34 0 0 117.64 44.79 0 0 -83.19zm158.13 48.74c0,20.67 13.78,34.45 34.45,34.45l10.34 0 0 -96.12c0,-45.13 -31.01,-81.3 -86.13,-81.3 -54.78,0 -85.78,36.17 -85.78,81.3l0 96.12 10.34 0c20.67,0 34.45,-13.78 34.45,-34.45l0 -58.91c0,-25.49 11.71,-47.89 41,-47.89 29.63,0 41.34,22.39 41.34,47.89l0 58.91zm61.67 -55.47c0,52.71 35.83,88.19 77.86,88.19 25.84,0 45.82,-7.23 57.88,-26.18l0 11.37c0,32.73 -18.6,57.88 -52.02,57.88l-31.35 0c-22.05,0 -36.86,13.78 -36.86,34.45l84.4 0c49.61,0 80.61,-30.66 80.61,-84.06l0 -163.99 -44.79 0 0 19.29c-11.71,-17.57 -31.01,-24.46 -57.53,-24.46 -42.38,0 -78.2,34.79 -78.2,87.5zm46.51 0.35c0,-30.66 18.26,-51.68 44.79,-51.68 26.53,0 44.44,21.01 44.44,51.68 0,30.66 -17.91,51.68 -44.44,51.68 -26.53,0 -44.79,-21.01 -44.79,-51.68z"/>
  <path class="fil1" d="M1128.86 143.32c0,16.54 10.68,27.56 27.56,27.56 16.54,0 27.56,-11.02 27.56,-27.56 0,-16.54 -11.02,-27.56 -27.56,-27.56 -16.88,0 -27.56,11.02 -27.56,27.56z"/>
  <path class="fil2" d="M164.86 24.14c91.05,0 164.86,73.81 164.86,164.86 0,91.05 -73.81,164.86 -164.86,164.86 -91.05,0 -164.86,-73.81 -164.86,-164.86 0,-91.05 73.81,-164.86 164.86,-164.86zm-51.85 218.73l12.8 0 0 -98.04 -36.42 0 0 64.56c16.82,0.94 25.04,8.85 23.61,33.48zm-74.2 -75.31l0 75.31 69.54 0c1.67,-28.83 -9.88,-30.81 -32.97,-30.81l0 -67.23c-21.5,-3.38 -36.13,1.33 -36.57,22.73zm197.48 7.95l24.09 0c6.35,0 9.52,2.33 9.52,7 0,4.67 -3.18,7 -9.52,7l-24.09 0 0 -14zm0 44.95l22.83 0c15.41,0 27.17,-3.36 35.3,-10.08 7.94,-6.44 11.91,-15.69 11.91,-27.73 0,-12.05 -3.97,-21.29 -11.91,-27.73 -8.12,-6.72 -19.89,-10.09 -35.3,-10.09l-59.24 0 -43.42 0 -30.64 49.02 30.64 49.02 43.42 0 36.42 0 0 -22.41zm-36.42 -75.63l0 30.68 0 13.77 0 53.6 -38.12 -49.02 38.12 -49.02z"/>
  <path class="fil3" d="M394.29 90.1c9.42,0 15.71,-6.28 15.71,-15.71l0 -74.05 -20.42 0 0 89.76 4.71 0zm50.11 -46.08c0,-9.43 -6.29,-15.71 -15.71,-15.71l-4.71 0 0 61.79 20.42 0 0 -46.08zm109.97 14.03l0 -30.79 24.98 0 0 -15.71 -24.98 0 0 -11.55 -20.42 0 0 58.83c0,16.65 8.48,31.26 30.48,31.26l23.41 0c0,-9.42 -4.55,-15.71 -14.61,-15.71l-7.54 0c-9.9,0 -11.31,-8.01 -11.31,-16.34z"/>
  <path class="fil3" d="M421.63 12.95c0,7.54 4.87,12.57 12.57,12.57 7.54,0 12.57,-5.03 12.57,-12.57 0,-7.54 -5.03,-12.57 -12.57,-12.57 -7.7,0 -12.57,5.03 -12.57,12.57z"/>
  <path class="fil3" d="M515.81 43.61l-51.45 0.1c-7.17,-3.74 -11.93,-10.04 -11.93,-20.85 0,-13.9 11.94,-22.76 29.85,-22.76l34.4 0c0,9.48 -6.13,15.8 -15.08,15.8l-15.87 0c-8.01,0 -11.94,2.21 -11.94,6.01 0,2.85 0.48,6.94 13.35,9.64 11.85,2.48 23.59,4.1 28.67,12.06z"/>
  <path class="fil3" d="M457.45 46.59l51.45 -0.1c7.17,3.74 11.93,10.04 11.93,20.85 0,13.9 -11.94,22.76 -29.85,22.76l-34.4 0c0,-9.48 6.13,-15.8 15.08,-15.8l15.87 0c8.01,0 11.94,-2.21 11.94,-6.01 0,-2.85 -0.48,-6.94 -13.35,-9.64 -11.85,-2.48 -23.59,-4.1 -28.67,-12.06z"/>
 </g>
</svg>
